<svg viewBox="0 0 1178 215" xmlns="http://www.w3.org/2000/svg"><path d="m-19-127l-87 224 137-126z" fill="#466322" stroke="#466322"/><path d="m-19-127l50 98 200 9z" fill="#3e5831" stroke="#3e5831"/><path d="m-19-127l250 107 138-71z" fill="#364d40" stroke="#364d40"/><path d="m-19-127 388 36 862-6z" fill="#28385d" stroke="#28385d"/><path d="m31-29l-137 126 146-8z" fill="#456125" stroke="#456125"/><path d="m31-29l9 118 137-58z" fill="#3e5831" stroke="#3e5831"/><path d="m31-29l146 60 54-51z" fill="#3a513a" stroke="#3a513a"/><path d="m231-20l-54 51 205 95z" fill="#32464a" stroke="#32464a"/><path d="m231-20l151 146-13-217z" fill="#2d3f52" stroke="#2d3f52"/><path d="m369-91l13 217 102-56z" fill="#27375e" stroke="#27375e"/><path d="m369-91 115 161 747-167z" fill="#262f60" stroke="#262f60"/><path d="m-106 97l-24 264 57-154z" fill="#4b6a18" stroke="#4b6a18"/><path d="M-106,97L-73,207L40,89Z" fill="#476420" stroke="#476420"/><path d="M40,89L-73,207L31,219Z" fill="#446026" stroke="#446026"/><path d="m40 89l-9 130 150 7z" fill="#3e5732" stroke="#3e5732"/><path d="m40 89l141 137-4-195z" fill="#3b5338" stroke="#3b5338"/><path d="m177 31l4 195 191-59z" fill="#334847" stroke="#334847"/><path d="m177 31l195 136 10-41z" fill="#2e4150" stroke="#2e4150"/><path d="m382 126l-10 41 117 43z" fill="#27375e" stroke="#27375e"/><path d="m382 126l107 84-5-140z" fill="#263660" stroke="#263660"/><path d="m484 70 5 140 742-307z" fill="#262f60" stroke="#262f60"/><path d="m-73 207l-57 154 163-8z" fill="#48651f" stroke="#48651f"/><path d="m-73 207l106 146-2-134z" fill="#446026" stroke="#446026"/><path d="m31 219l2 134 148-127z" fill="#3e5831" stroke="#3e5831"/><path d="M181,226L33,353L219,407Z" fill="#3a523a" stroke="#3a523a"/><path d="m181 226l38 181 153-240z" fill="#324649" stroke="#324649"/><path d="m372 167l-153 240 196-11z" fill="#2d3f54" stroke="#2d3f54"/><path d="m372 167l43 229 74-186z" fill="#263660" stroke="#263660"/><path d="m489 210-74 186 815.62 32z" fill="#262f60" stroke="#262f60"/><path d="m489 210 741.62 218 0.375-525z" fill="#262f60" stroke="#262f60"/><path d="m-130 361l349 46-186-54z" fill="#415c2c" stroke="#415c2c"/><path d="m219 407 1011.6 21-815.62-32z" fill="#262f60" stroke="#262f60"/></svg>